<mxfile host="65bd71144e">
    <diagram id="YeBsLe0wz5kqz-9HFI_q" name="Page-1">
        <mxGraphModel dx="892" dy="854" grid="1" gridSize="10" guides="1" tooltips="1" connect="1" arrows="1" fold="1" page="1" pageScale="1" pageWidth="850" pageHeight="1100" math="0" shadow="0">
            <root>
                <mxCell id="0"/>
                <mxCell id="1" parent="0"/>
                <mxCell id="2" value="" style="shape=process;whiteSpace=wrap;html=1;backgroundOutline=1;size=0.009009009009009009;" parent="1" vertex="1">
                    <mxGeometry x="160" y="220" width="1260" height="320" as="geometry"/>
                </mxCell>
                <mxCell id="3" value="&amp;lt;&amp;lt;service&amp;gt;&amp;gt;&lt;br&gt;&amp;lt;&amp;lt;subsystem&amp;gt;&amp;gt;&lt;br&gt;:IdentityService" style="text;html=1;strokeColor=none;fillColor=none;align=left;verticalAlign=middle;whiteSpace=wrap;rounded=0;" parent="1" vertex="1">
                    <mxGeometry x="180" y="230" width="160" height="40" as="geometry"/>
                </mxCell>
                <mxCell id="7" value="&amp;lt;&amp;lt;coordinator&amp;gt;&amp;gt;&lt;br style=&quot;border-color: var(--border-color);&quot;&gt;: APIGateway" style="shape=process;whiteSpace=wrap;html=1;backgroundOutline=1;size=0.07142857142857142;" parent="1" vertex="1">
                    <mxGeometry x="690" y="140" width="140" height="50" as="geometry"/>
                </mxCell>
                <mxCell id="8" value="&amp;lt;&amp;lt;client&amp;gt;&amp;gt;&lt;br&gt;&amp;lt;&amp;lt;subsystem&amp;gt;&amp;gt;&lt;br style=&quot;border-color: var(--border-color);&quot;&gt;: Client" style="shape=process;whiteSpace=wrap;html=1;backgroundOutline=1;size=0.07142857142857142;" parent="1" vertex="1">
                    <mxGeometry x="690" width="140" height="50" as="geometry"/>
                </mxCell>
                <mxCell id="10" value="&amp;lt;&amp;lt;demand&amp;gt;&amp;gt;&lt;br&gt;&amp;lt;&amp;lt;coordinator&amp;gt;&amp;gt;&lt;br style=&quot;border-color: var(--border-color);&quot;&gt;: FriendController" style="shape=process;whiteSpace=wrap;html=1;backgroundOutline=1;size=0.07142857142857142;" parent="1" vertex="1">
                    <mxGeometry x="660" y="310" width="200" height="50" as="geometry"/>
                </mxCell>
                <mxCell id="13" value="" style="endArrow=none;html=1;entryX=0.5;entryY=1;entryDx=0;entryDy=0;exitX=0.5;exitY=0;exitDx=0;exitDy=0;" parent="1" source="10" target="7" edge="1">
                    <mxGeometry width="50" height="50" relative="1" as="geometry">
                        <mxPoint x="550" y="310" as="sourcePoint"/>
                        <mxPoint x="770" y="200" as="targetPoint"/>
                    </mxGeometry>
                </mxCell>
                <mxCell id="17" value="" style="endArrow=none;html=1;entryX=0.5;entryY=0;entryDx=0;entryDy=0;exitX=0.5;exitY=1;exitDx=0;exitDy=0;" parent="1" source="10" edge="1">
                    <mxGeometry width="50" height="50" relative="1" as="geometry">
                        <mxPoint x="550" y="360" as="sourcePoint"/>
                        <mxPoint x="760" y="430" as="targetPoint"/>
                    </mxGeometry>
                </mxCell>
                <mxCell id="23" value="&amp;lt;&amp;lt;database wrapper&amp;gt;&amp;gt;&lt;br style=&quot;border-color: var(--border-color);&quot;&gt;: ApplicationDbContext" style="shape=process;whiteSpace=wrap;html=1;backgroundOutline=1;size=0.07142857142857142;" parent="1" vertex="1">
                    <mxGeometry x="670" y="430" width="180" height="50" as="geometry"/>
                </mxCell>
                <mxCell id="28" value="" style="endArrow=none;html=1;entryX=0.5;entryY=1;entryDx=0;entryDy=0;exitX=0.5;exitY=0;exitDx=0;exitDy=0;" parent="1" source="7" target="8" edge="1">
                    <mxGeometry width="50" height="50" relative="1" as="geometry">
                        <mxPoint x="640" y="260" as="sourcePoint"/>
                        <mxPoint x="690" y="210" as="targetPoint"/>
                    </mxGeometry>
                </mxCell>
                <mxCell id="29" value="" style="endArrow=classic;html=1;" parent="1" edge="1">
                    <mxGeometry width="50" height="50" relative="1" as="geometry">
                        <mxPoint x="770" y="80" as="sourcePoint"/>
                        <mxPoint x="770" y="100" as="targetPoint"/>
                    </mxGeometry>
                </mxCell>
                <mxCell id="30" value="" style="endArrow=classic;html=1;dashed=1;" parent="1" edge="1">
                    <mxGeometry width="50" height="50" relative="1" as="geometry">
                        <mxPoint x="750" y="100" as="sourcePoint"/>
                        <mxPoint x="750" y="80" as="targetPoint"/>
                    </mxGeometry>
                </mxCell>
                <mxCell id="31" value="request" style="text;html=1;strokeColor=none;fillColor=none;align=center;verticalAlign=middle;whiteSpace=wrap;rounded=0;" parent="1" vertex="1">
                    <mxGeometry x="790" y="70" width="60" height="30" as="geometry"/>
                </mxCell>
                <mxCell id="32" value="response" style="text;html=1;strokeColor=none;fillColor=none;align=center;verticalAlign=middle;whiteSpace=wrap;rounded=0;" parent="1" vertex="1">
                    <mxGeometry x="670" y="70" width="60" height="30" as="geometry"/>
                </mxCell>
                <mxCell id="35" value="" style="endArrow=classic;html=1;entryX=0.526;entryY=0;entryDx=0;entryDy=0;entryPerimeter=0;" parent="1" edge="1">
                    <mxGeometry width="50" height="50" relative="1" as="geometry">
                        <mxPoint x="769" y="247" as="sourcePoint"/>
                        <mxPoint x="769.62" y="266.99999999999994" as="targetPoint"/>
                    </mxGeometry>
                </mxCell>
                <mxCell id="50" value="" style="endArrow=classic;html=1;" parent="1" edge="1">
                    <mxGeometry width="50" height="50" relative="1" as="geometry">
                        <mxPoint x="770" y="390" as="sourcePoint"/>
                        <mxPoint x="771" y="410" as="targetPoint"/>
                    </mxGeometry>
                </mxCell>
                <mxCell id="51" value="&amp;lt;&amp;lt;client&amp;gt;&amp;gt;&lt;br&gt;&amp;lt;&amp;lt;subsystem&amp;gt;&amp;gt;&lt;br style=&quot;border-color: var(--border-color);&quot;&gt;: RequestClient" style="shape=process;whiteSpace=wrap;html=1;backgroundOutline=1;size=0.07142857142857142;" parent="1" vertex="1">
                    <mxGeometry x="1118" y="10" width="140" height="50" as="geometry"/>
                </mxCell>
                <mxCell id="52" value="&amp;lt;&amp;lt;client&amp;gt;&amp;gt;&lt;br&gt;&amp;lt;&amp;lt;subsystem&amp;gt;&amp;gt;&lt;br style=&quot;border-color: var(--border-color);&quot;&gt;: Producer" style="shape=process;whiteSpace=wrap;html=1;backgroundOutline=1;size=0.07142857142857142;" parent="1" vertex="1">
                    <mxGeometry x="1298" y="10" width="140" height="50" as="geometry"/>
                </mxCell>
                <mxCell id="58" value="" style="endArrow=none;html=1;entryX=0.5;entryY=1;entryDx=0;entryDy=0;exitX=0.5;exitY=0;exitDx=0;exitDy=0;" parent="1" source="91" target="51" edge="1">
                    <mxGeometry width="50" height="50" relative="1" as="geometry">
                        <mxPoint x="1288" y="130" as="sourcePoint"/>
                        <mxPoint x="1228" y="60" as="targetPoint"/>
                    </mxGeometry>
                </mxCell>
                <mxCell id="59" value="" style="endArrow=none;html=1;entryX=0.5;entryY=1;entryDx=0;entryDy=0;exitX=0.5;exitY=0;exitDx=0;exitDy=0;" parent="1" source="91" target="52" edge="1">
                    <mxGeometry width="50" height="50" relative="1" as="geometry">
                        <mxPoint x="1288" y="130" as="sourcePoint"/>
                        <mxPoint x="1198" y="70" as="targetPoint"/>
                    </mxGeometry>
                </mxCell>
                <mxCell id="61" value="" style="endArrow=classic;html=1;" parent="1" edge="1">
                    <mxGeometry width="50" height="50" relative="1" as="geometry">
                        <mxPoint x="1239" y="85" as="sourcePoint"/>
                        <mxPoint x="1258" y="100" as="targetPoint"/>
                    </mxGeometry>
                </mxCell>
                <mxCell id="62" value="" style="endArrow=classic;html=1;dashed=1;" parent="1" edge="1">
                    <mxGeometry width="50" height="50" relative="1" as="geometry">
                        <mxPoint x="1242" y="110" as="sourcePoint"/>
                        <mxPoint x="1222" y="94" as="targetPoint"/>
                    </mxGeometry>
                </mxCell>
                <mxCell id="63" value="request" style="text;html=1;strokeColor=none;fillColor=none;align=center;verticalAlign=middle;whiteSpace=wrap;rounded=0;" parent="1" vertex="1">
                    <mxGeometry x="1238" y="60" width="60" height="30" as="geometry"/>
                </mxCell>
                <mxCell id="64" value="response" style="text;html=1;strokeColor=none;fillColor=none;align=center;verticalAlign=middle;whiteSpace=wrap;rounded=0;" parent="1" vertex="1">
                    <mxGeometry x="1158" y="90" width="60" height="30" as="geometry"/>
                </mxCell>
                <mxCell id="66" value="" style="endArrow=classic;html=1;" parent="1" edge="1">
                    <mxGeometry width="50" height="50" relative="1" as="geometry">
                        <mxPoint x="1348" y="90" as="sourcePoint"/>
                        <mxPoint x="1328" y="110" as="targetPoint"/>
                    </mxGeometry>
                </mxCell>
                <mxCell id="68" value="Broadcast" style="text;html=1;strokeColor=none;fillColor=none;align=center;verticalAlign=middle;whiteSpace=wrap;rounded=0;" parent="1" vertex="1">
                    <mxGeometry x="1348" y="90" width="60" height="30" as="geometry"/>
                </mxCell>
                <mxCell id="72" value="" style="endArrow=none;html=1;entryX=0.5;entryY=1;entryDx=0;entryDy=0;exitX=1;exitY=0.5;exitDx=0;exitDy=0;" parent="1" target="88" edge="1">
                    <mxGeometry width="50" height="50" relative="1" as="geometry">
                        <mxPoint x="850" y="455" as="sourcePoint"/>
                        <mxPoint x="1110" y="360" as="targetPoint"/>
                        <Array as="points">
                            <mxPoint x="1290" y="455"/>
                        </Array>
                    </mxGeometry>
                </mxCell>
                <mxCell id="74" value="" style="endArrow=classic;html=1;exitX=0.657;exitY=0.468;exitDx=0;exitDy=0;exitPerimeter=0;" parent="1" edge="1">
                    <mxGeometry width="50" height="50" relative="1" as="geometry">
                        <mxPoint x="1073.14" y="443.96000000000004" as="sourcePoint"/>
                        <mxPoint x="1023" y="443.91" as="targetPoint"/>
                    </mxGeometry>
                </mxCell>
                <mxCell id="75" value="&amp;lt;&amp;lt;demand&amp;gt;&amp;gt;&lt;br&gt;&amp;lt;&amp;lt;coordinator&amp;gt;&amp;gt;&lt;br style=&quot;border-color: var(--border-color);&quot;&gt;: UserController" style="shape=process;whiteSpace=wrap;html=1;backgroundOutline=1;size=0.07142857142857142;" vertex="1" parent="1">
                    <mxGeometry x="430" y="310" width="200" height="50" as="geometry"/>
                </mxCell>
                <mxCell id="76" value="&amp;lt;&amp;lt;demand&amp;gt;&amp;gt;&lt;br&gt;&amp;lt;&amp;lt;coordinator&amp;gt;&amp;gt;&lt;br style=&quot;border-color: var(--border-color);&quot;&gt;: FriendRequestController" style="shape=process;whiteSpace=wrap;html=1;backgroundOutline=1;size=0.07142857142857142;" vertex="1" parent="1">
                    <mxGeometry x="910" y="310" width="200" height="50" as="geometry"/>
                </mxCell>
                <mxCell id="88" value="&amp;lt;&amp;lt;demand&amp;gt;&amp;gt;&lt;br&gt;&amp;lt;&amp;lt;coordinator&amp;gt;&amp;gt;&lt;br style=&quot;border-color: var(--border-color);&quot;&gt;: Consumer" style="shape=process;whiteSpace=wrap;html=1;backgroundOutline=1;size=0.07142857142857142;" vertex="1" parent="1">
                    <mxGeometry x="1188" y="310" width="200" height="50" as="geometry"/>
                </mxCell>
                <mxCell id="89" value="" style="endArrow=classic;html=1;exitX=0.828;exitY=0.085;exitDx=0;exitDy=0;exitPerimeter=0;" edge="1" parent="1">
                    <mxGeometry width="50" height="50" relative="1" as="geometry">
                        <mxPoint x="1299.3600000000001" y="259.95" as="sourcePoint"/>
                        <mxPoint x="1299" y="280" as="targetPoint"/>
                    </mxGeometry>
                </mxCell>
                <mxCell id="90" value="" style="endArrow=none;html=1;entryX=0.5;entryY=1;entryDx=0;entryDy=0;exitX=0.5;exitY=0;exitDx=0;exitDy=0;" edge="1" source="88" target="91" parent="1">
                    <mxGeometry width="50" height="50" relative="1" as="geometry">
                        <mxPoint x="1248" y="250" as="sourcePoint"/>
                        <mxPoint x="1148" y="180" as="targetPoint"/>
                    </mxGeometry>
                </mxCell>
                <mxCell id="91" value="&amp;lt;&amp;lt;coordinator&amp;gt;&amp;gt;&lt;br style=&quot;border-color: var(--border-color);&quot;&gt;: RabbitMQ" style="shape=process;whiteSpace=wrap;html=1;backgroundOutline=1;size=0.07142857142857142;" vertex="1" parent="1">
                    <mxGeometry x="1218" y="130" width="140" height="50" as="geometry"/>
                </mxCell>
                <mxCell id="106" value="" style="endArrow=none;html=1;entryX=0.5;entryY=0;entryDx=0;entryDy=0;exitX=0.5;exitY=1;exitDx=0;exitDy=0;" edge="1" parent="1" source="75">
                    <mxGeometry width="50" height="50" relative="1" as="geometry">
                        <mxPoint x="570" y="380" as="sourcePoint"/>
                        <mxPoint x="760" y="430" as="targetPoint"/>
                    </mxGeometry>
                </mxCell>
                <mxCell id="107" value="" style="endArrow=none;html=1;entryX=0.5;entryY=1;entryDx=0;entryDy=0;exitX=0.5;exitY=0;exitDx=0;exitDy=0;" edge="1" parent="1" target="76">
                    <mxGeometry width="50" height="50" relative="1" as="geometry">
                        <mxPoint x="760" y="430" as="sourcePoint"/>
                        <mxPoint x="1050" y="430" as="targetPoint"/>
                    </mxGeometry>
                </mxCell>
                <mxCell id="108" value="" style="endArrow=classic;html=1;entryX=0.477;entryY=0.404;entryDx=0;entryDy=0;entryPerimeter=0;" edge="1" parent="1">
                    <mxGeometry width="50" height="50" relative="1" as="geometry">
                        <mxPoint x="676.24" y="396" as="sourcePoint"/>
                        <mxPoint x="706" y="405.8800000000001" as="targetPoint"/>
                    </mxGeometry>
                </mxCell>
                <mxCell id="109" value="" style="endArrow=classic;html=1;entryX=0.392;entryY=0.404;entryDx=0;entryDy=0;entryPerimeter=0;exitX=0.441;exitY=0.362;exitDx=0;exitDy=0;exitPerimeter=0;" edge="1" parent="1">
                    <mxGeometry width="50" height="50" relative="1" as="geometry">
                        <mxPoint x="858.8200000000002" y="387.14" as="sourcePoint"/>
                        <mxPoint x="808.8400000000001" y="406.88" as="targetPoint"/>
                    </mxGeometry>
                </mxCell>
                <mxCell id="111" value="&amp;lt;&amp;lt;demand&amp;gt;&amp;gt;&lt;br&gt;&amp;lt;&amp;lt;coordinator&amp;gt;&amp;gt;&lt;br style=&quot;border-color: var(--border-color);&quot;&gt;: AuthCoordinator" style="shape=process;whiteSpace=wrap;html=1;backgroundOutline=1;size=0.07142857142857142;" vertex="1" parent="1">
                    <mxGeometry x="200" y="310" width="200" height="50" as="geometry"/>
                </mxCell>
                <mxCell id="112" value="" style="endArrow=none;html=1;entryX=0.5;entryY=1;entryDx=0;entryDy=0;exitX=0.5;exitY=0;exitDx=0;exitDy=0;" edge="1" parent="1" source="111" target="7">
                    <mxGeometry width="50" height="50" relative="1" as="geometry">
                        <mxPoint x="500" y="280" as="sourcePoint"/>
                        <mxPoint x="500" y="160" as="targetPoint"/>
                    </mxGeometry>
                </mxCell>
                <mxCell id="113" value="" style="endArrow=classic;html=1;entryX=0.526;entryY=0;entryDx=0;entryDy=0;entryPerimeter=0;exitX=0.238;exitY=0.125;exitDx=0;exitDy=0;exitPerimeter=0;" edge="1" parent="1">
                    <mxGeometry width="50" height="50" relative="1" as="geometry">
                        <mxPoint x="458.88" y="257" as="sourcePoint"/>
                        <mxPoint x="429.6199999999999" y="267" as="targetPoint"/>
                    </mxGeometry>
                </mxCell>
                <mxCell id="115" value="" style="endArrow=none;html=1;entryX=0.5;entryY=0;entryDx=0;entryDy=0;exitX=0.5;exitY=1;exitDx=0;exitDy=0;" edge="1" parent="1" source="111" target="23">
                    <mxGeometry width="50" height="50" relative="1" as="geometry">
                        <mxPoint x="360" y="380" as="sourcePoint"/>
                        <mxPoint x="590" y="450" as="targetPoint"/>
                    </mxGeometry>
                </mxCell>
                <mxCell id="117" value="" style="endArrow=classic;html=1;entryX=0.278;entryY=0.563;entryDx=0;entryDy=0;entryPerimeter=0;" edge="1" parent="1" target="2">
                    <mxGeometry width="50" height="50" relative="1" as="geometry">
                        <mxPoint x="480" y="394" as="sourcePoint"/>
                        <mxPoint x="510.28" y="404.0799999999999" as="targetPoint"/>
                    </mxGeometry>
                </mxCell>
                <mxCell id="118" value="" style="endArrow=none;html=1;entryX=0.5;entryY=1;entryDx=0;entryDy=0;exitX=0.5;exitY=0;exitDx=0;exitDy=0;" edge="1" parent="1" source="76" target="7">
                    <mxGeometry width="50" height="50" relative="1" as="geometry">
                        <mxPoint x="770" y="320" as="sourcePoint"/>
                        <mxPoint x="770" y="200" as="targetPoint"/>
                    </mxGeometry>
                </mxCell>
                <mxCell id="119" value="" style="endArrow=classic;html=1;entryX=0.635;entryY=0.187;entryDx=0;entryDy=0;entryPerimeter=0;exitX=0.619;exitY=0.156;exitDx=0;exitDy=0;exitPerimeter=0;" edge="1" parent="1">
                    <mxGeometry width="50" height="50" relative="1" as="geometry">
                        <mxPoint x="939.94" y="266.92" as="sourcePoint"/>
                        <mxPoint x="960.1000000000001" y="276.84000000000003" as="targetPoint"/>
                    </mxGeometry>
                </mxCell>
                <mxCell id="120" value="" style="endArrow=none;html=1;entryX=0.5;entryY=1;entryDx=0;entryDy=0;exitX=0.5;exitY=0;exitDx=0;exitDy=0;" edge="1" parent="1" source="75" target="7">
                    <mxGeometry width="50" height="50" relative="1" as="geometry">
                        <mxPoint x="770" y="320" as="sourcePoint"/>
                        <mxPoint x="770" y="199.99999999999994" as="targetPoint"/>
                    </mxGeometry>
                </mxCell>
                <mxCell id="121" value="" style="endArrow=classic;html=1;entryX=0.526;entryY=0;entryDx=0;entryDy=0;entryPerimeter=0;exitX=0.365;exitY=0.125;exitDx=0;exitDy=0;exitPerimeter=0;" edge="1" parent="1">
                    <mxGeometry width="50" height="50" relative="1" as="geometry">
                        <mxPoint x="628.9" y="269" as="sourcePoint"/>
                        <mxPoint x="609.6199999999999" y="278.99999999999994" as="targetPoint"/>
                    </mxGeometry>
                </mxCell>
            </root>
        </mxGraphModel>
    </diagram>
</mxfile>